<svg width="16" height="16" viewBox="0 0 16 16" fill="none" xmlns="http://www.w3.org/2000/svg">
    <path d="M6.66675 11.9998C6.66675 12.7362 7.2637 13.3332 8.00008 13.3332C8.73646 13.3332 9.33342 12.7362 9.33342 11.9998V9.33317H12.0001C12.7365 9.33317 13.3334 8.73622 13.3334 7.99984C13.3334 7.26346 12.7365 6.6665 12.0001 6.6665H9.33342V3.99984C9.33342 3.26346 8.73646 2.6665 8.00008 2.6665C7.2637 2.6665 6.66675 3.26346 6.66675 3.99984V6.6665L4.00008 6.6665C3.2637 6.6665 2.66675 7.26346 2.66675 7.99984C2.66675 8.73622 3.2637 9.33317 4.00008 9.33317L6.66675 9.33317V11.9998Z" fill="#FFF9F0" />
</svg>